<!-- Created with Inkscape (http://www.inkscape.org/) -->
<svg xmlns:rdf="http://www.w3.org/1999/02/22-rdf-syntax-ns#" xmlns="http://www.w3.org/2000/svg" version="1.1" xmlns:cc="http://creativecommons.org/ns#" xmlns:xlink="http://www.w3.org/1999/xlink" viewBox="0 0 874.25 528.02" xmlns:dc="http://purl.org/dc/elements/1.1/">
	<metadata>
		<rdf:RDF>
			<cc:Work rdf:about="">
				<dc:title/>
				<dc:description>The Planet Saturn</dc:description>
				<dc:subject>
					<rdf:Bag>
						<rdf:li>astronomy</rdf:li>
						<rdf:li>space astronomy planet saturn</rdf:li>
					</rdf:Bag>
				</dc:subject>
				<dc:publisher>
					<cc:Agent rdf:about="http://www.openclipart.org/">
						<dc:title>Open Clip Art Library</dc:title>
					</cc:Agent>
				</dc:publisher>
				<dc:creator>
					<cc:Agent>
						<dc:title>Dan Gerhards</dc:title>
					</cc:Agent>
				</dc:creator>
				<dc:rights>
					<cc:Agent>
						<dc:title>Dan Gerhards</dc:title>
					</cc:Agent>
				</dc:rights>
				<dc:date>May 3, 2005</dc:date>
				<dc:format>image/svg+xml</dc:format>
				<dc:type rdf:resource="http://purl.org/dc/dcmitype/StillImage"/>
				<cc:license rdf:resource="http://web.resource.org/cc/PublicDomain"/>
				<dc:language>en</dc:language>
			</cc:Work>
			<cc:License rdf:about="http://web.resource.org/cc/PublicDomain">
				<cc:permits rdf:resource="http://web.resource.org/cc/Reproduction"/>
				<cc:permits rdf:resource="http://web.resource.org/cc/Distribution"/>
				<cc:permits rdf:resource="http://web.resource.org/cc/DerivativeWorks"/>
			</cc:License>
		</rdf:RDF>
	</metadata>
	<defs>
		<radialGradient id="radialGradient22276" gradientUnits="userSpaceOnUse" cy="629.84" cx="1143" gradientTransform="scale(1.067735,0.936562)" r="184.27">
			<stop stop-color="#FFF" stop-opacity="0.0000000" offset="0"/>
			<stop stop-color="#3f3f3f" stop-opacity="0.070588239" offset="0.5"/>
			<stop stop-color="#000" stop-opacity="0.32989690" offset="0.78"/>
			<stop stop-color="#000" stop-opacity="0.52156866" offset="0.93"/>
			<stop stop-color="#000" stop-opacity="0.65098041" offset="1"/>
		</radialGradient>
		<clipPath id="clipPath3823" clipPathUnits="userSpaceOnUse">
			<path fill-rule="nonzero" transform="matrix(1.0581214,-0.61090724,0.57091946,0.98886056,854.10919,675.69514)" fill="#FFF" d="m408,212.02-87.137-34.011-77.417,52.499,5.42-93.382l-73.85-57.41,90.49-23.701,31.773-87.977,50.504,78.733,93.49,3.0315-59.273,72.362z"/>
		</clipPath>
	</defs>
	<g clip-path="url(#clipPath3823)" transform="matrix(1.0069631,0.58137098,-0.58137098,1.0069631,-467.84693,-1054.4827)">
		<path d="m1081.7,676.89c73.893,115.38,253.91,115.85,329.33-0.35355-109.96,0.11785-219.37,0.2357-329.33,0.35355z" fill-opacity="1" fill-rule="evenodd" stroke="none" fill="#ac9877"/>
		<path fill-rule="nonzero" fill="#e7c278" d="m1104.6,474.28c-31.578,31.133-51.367,77.048-48.031,127.25h0.031c1.6156,26.25,10.043,53.467,27,78.25,102.29,26.879,230.22,24.645,325.38-0.0625,17.033-25.087,28.068-56.292,27.594-87.938h-0.2187c0.2483-45.378-16.815-85.689-47.875-117.5-94.895,0-188.98-0.00001-283.88,0z"/>
		<path d="m1165.6,432.79c53.847,0,107.65,0.0152,161.5,0.0152,23.929,9.2627,51.246,28.309,67.578,48.207-85.752,30.259-201.81,34.007-296.3-0.30369,17.852-19.771,40.261-36.883,67.228-47.919z" fill-rule="nonzero" fill="#b29b7a"/>
		<path d="m1164.5,433.26c55.327,18.168,117.32,16.965,165.62,0.75964-61.91-25.321-117.13-21.586-165.62-0.75964z" fill-rule="evenodd" fill="#797265"/>
		<path d="m1073.7,663.39c114.24,26.163,229.35,28.961,345.01-0.0305-2.0034,4.4512-4.7808,8.5488-7.4915,12.823-108.59,25.515-221.34,25.574-329.93,0.17678-3.3587-5.2172-4.9345-8.1059-7.5862-12.97z" fill-rule="nonzero" fill="#ccb986"/>
		<path d="m1063.4,542.49c105.64,34.042,274.5,37.083,366.13,0.125,0.7957,2.6857,1.5152,5.3714,2.2348,8.0572-92.177,37.5-263.99,35-370.67,0,0.746-2.7274,1.4615-5.4548,2.2989-8.1822z" fill-rule="nonzero" fill="#c4a361"/>
		<path d="m1417,589.88c0,95.227-88.019,172.42-196.6,172.42s-196.6-77.197-196.6-172.42c0-95.227,88.019-172.42,196.6-172.42s196.6,77.197,196.6,172.42z" fill-rule="nonzero" transform="matrix(0.972229,0,0,1.010245,59.89529,-5.887112)" fill="url(#radialGradient22276)"/>
		<path fill-rule="nonzero" fill="#ada293" d="M1073.3,517.75c-154.94,12.37-263.8,41.37-263.8,75.13,0,44.988,193.31,81.5,431.5,81.5,238.19,0.00002,431.53-36.512,431.53-81.5,0.0001-32.914-103.7-61.233-252.53-74.094,0.2794,0.57029,0.4774,1.1766,0.75,1.75,143.28,12.746,242.78,40.185,242.78,72.062,0.0001,43.999-189.08,79.719-422.03,79.719-232.95,0.00002-422-35.72-422-79.719,0-32.645,104.18-60.681,253.03-73,0.29-0.60342,0.5157-1.2448,0.8126-1.8438z"/>
		<path fill-rule="nonzero" fill="#ada393" d="m1072.3,520.06c-147.52,12.305-250.69,40.131-250.69,72.531,0,43.778,188.1,79.312,419.88,79.312,231.78,0.00002,419.91-35.535,419.91-79.312,0-31.635-98.475-58.898-240.44-71.625,1.4053,2.9791,2.7803,5.9704,4,9.0312,116.48,12.214,195.47,35.664,195.47,62.594,0,39.505-169.78,71.562-378.94,71.562-209.16-0.00001-378.91-32.058-378.91-71.562,0.00001-27.707,83.656-51.703,205.69-63.594,1.2331-3.0426,2.6291-5.9954,4.0313-8.9375z"/>
		<path d="m1061.4,550.09c-65.976,9.9877-108.34,25.3-108.34,42.5,0,30.076,129.23,54.469,288.47,54.469,159.24-0.00001,288.5-24.393,288.5-54.469,0-16.287-38.109-30.857-98.156-40.844,0.9533,3.9606,1.8108,7.9638,2.4687,12.031,33.263,7.9267,53.281,17.921,53.281,28.812-0.0001,25.656-110.26,46.469-246.09,46.469-135.83-0.00001-246.06-20.813-246.06-46.469,0-11.956,24.154-22.823,63.469-31.062,0.6948-3.8594,1.5111-7.6803,2.4688-11.438z" fill-opacity="0.72972969" fill-rule="nonzero" fill="#343423"/>
		<path fill-rule="nonzero" fill="#d8d4c1" d="m1067.4,530.84c-116.78,11.778-196.34,35.014-196.34,61.75,0,38.621,165.93,69.969,370.41,69.969,204.48-0.00001,370.44-31.348,370.44-69.969,0-25.934-75.013-48.54-186.09-60.625,2.4557,6.4132,4.3764,13.036,6,19.781,60.047,9.987,98.156,24.557,98.156,40.844,0.0001,30.076-129.26,54.469-288.5,54.469-159.24-0.00001-288.47-24.393-288.47-54.469-0.00001-17.2,42.368-32.512,108.34-42.5,1.6764-6.5767,3.633-13.035,6.0625-19.25z"/>
	</g>
</svg>
