<svg xmlns="http://www.w3.org/2000/svg" viewBox="0 0 874.2531 528.0186" xmlns:xlink="http://www.w3.org/1999/xlink">
<defs>
<radialGradient cx="1142.974" cy="629.836" gradientTransform="scale(1.06774 .93656)" id="radialGradient22276" r="184.272" gradientUnits="userSpaceOnUse">
<stop offset="0" stop-color="#fff" stop-opacity="0"/>
<stop offset=".5" stop-color="#3f3f3f" stop-opacity=".071"/>
<stop offset=".78" stop-opacity=".33"/>
<stop offset=".93" stop-opacity=".522"/>
<stop offset="1" stop-opacity=".651"/>
</radialGradient>
</defs>
  <style>
    #path1:hover { fill:#ff00ff; }
    #path1:active { stroke-width:10px; stroke:green; }
    path:nth-child(even) { fill: #ff0000; }
    path:nth-child(even) { fill: #0000ff; }
  </style>
<g transform="matrix(1.00696 .58137 -.58137 1.00696 -467.84693 -1054.4827)">
<path id="path1" fill="#ac9877" fill-rule="evenodd" d="m1081.6966,676.8885c73.8927,115.3763 253.9122,115.8477 329.329-.3536-109.9551,.1178-219.3739,.2357-329.329,.3536z"/>
<path fill="#e7c278" d="m1104.5625,474.2812c-31.5783,31.1331-51.3674,77.0483-48.0313,127.25 .011,0 .021,0 .031,0 1.6156,26.25 10.0431,53.4674 27,78.25 102.2851,26.8787 230.224,24.6453 325.375-.0625 17.0331-25.0874 28.068-56.2915 27.5937-87.9375-.073,0-.1458,0-.2187,0 .2483-45.3775-16.8146-85.6891-47.875-117.5-94.895,0-188.98-0-283.875,0z"/>
<path fill="#b29b7a" d="m1165.642,432.7872c53.8469,0 107.6481,.0152 161.495,.0152 23.9286,9.2627 51.246,28.3093 67.5782,48.207-85.7517,30.2589-201.8136,34.0066-296.3012-.3037 17.8515-19.771 40.2608-36.8833 67.228-47.9185z"/>
<path fill="#797265" fill-rule="evenodd" d="m1164.5247,433.2574c55.3269,18.168 117.3159,16.9653 165.6162,.7596-61.9105-25.3213-117.126-21.5864-165.6162-.7596z"/>
<path fill="#ccb986" d="m1073.7318,663.3926c114.2441,26.163 229.3476,28.9609 345.0059-.0305-2.0034,4.4512-4.7808,8.5488-7.4915,12.8232-108.5872,25.5148-221.341,25.5737-329.9282,.1768-3.3587-5.2172-4.9345-8.1059-7.5862-12.9696z"/>
<path fill="#c4a361" d="m1063.3751,542.4866c105.6357,34.0417 274.4973,37.0833 366.133,.125 .7957,2.6857 1.5152,5.3714 2.2348,8.0572-92.1774,37.5-263.9893,35-370.6667,0 .746-2.7274 1.4615-5.4548 2.2989-8.1822z"/>
</g>
<g transform="matrix(1.00696 .58137 -.58137 1.00696 -467.84693 -1054.4827)">
<path id="path1" fill="url(#radialGradient22276)" d="m1416.9885,589.8803c0,95.2269-88.0186,172.4235-196.5951,172.4235-108.5764,0-196.595-77.1966-196.595-172.4235 0-95.2269 88.0186-172.4235 196.595-172.4235 108.5765,0 196.5951,77.1966 196.5951,172.4235z" transform="matrix(.97223 0 0 1.01025 59.89529 -5.88711)"/>
</g>
<g transform="matrix(1.00696 .58137 -.58137 1.00696 -467.84693 -1054.4827)">
<path fill="#ada293" d="m1073.3438,517.75c-154.9853,12.3667-263.8438,41.366-263.8438,75.125 0,44.9883 193.3104,81.5 431.5,81.5 238.1896,0 431.5313-36.5117 431.5312-81.5 .0001-32.9143-103.7043-61.2328-252.5312-74.0938 .2794,.5703 .4774,1.1766 .75,1.75 143.2815,12.7462 242.7812,40.1846 242.7812,72.0625 .0001,43.9985-189.0818,79.7188-422.0312,79.7188-232.9494,0-422-35.7202-422-79.7188 0-32.6447 104.1762-60.6815 253.0312-73 .29-.6034 .5157-1.2448 .8126-1.8438z"/>
<path fill="#ada393" d="m1072.3125,520.0625c-147.5168,12.3052-250.6875,40.1312-250.6875,72.5312 0,43.7776 188.0956,79.3125 419.875,79.3125 231.7794,0 419.9062-35.5349 419.9062-79.3125 0-31.6354-98.4752-58.8982-240.4374-71.625 1.4053,2.9791 2.7803,5.9704 4,9.0312 116.4834,12.2136 195.4687,35.6638 195.4687,62.5938 0,39.505-169.7792,71.5625-378.9375,71.5625-209.1583-0-378.9062-32.0575-378.9062-71.5625 0-27.707 83.6559-51.7028 205.6874-63.5938 1.2331-3.0426 2.6291-5.9955 4.0313-8.9375z"/>
<path fill="#343423" fill-opacity=".73" d="m1061.375,550.0938c-65.9759,9.9877-108.3438,25.2995-108.3438,42.5 0,30.0758 129.2331,54.4688 288.4688,54.4688 159.2357-0 288.5-24.3929 288.5-54.4688 0-16.2871-38.1093-30.8568-98.1562-40.8438 .9533,3.9606 1.8108,7.9638 2.4687,12.0312 33.2633,7.9267 53.2813,17.9209 53.2813,28.8125-.0001,25.6558-110.2594,46.4688-246.0938,46.4688-135.8344-0-246.0625-20.8129-246.0625-46.4688 0-11.9565 24.1536-22.8232 63.4687-31.0625 .6948-3.8594 1.5111-7.6803 2.4688-11.4375z"/>
<path fill="#d8d4c1" d="m1067.4375,530.8438c-116.7762,11.7775-196.3437,35.0142-196.3438,61.75 0,38.621 165.9282,69.9688 370.4062,69.9688 204.478-0 370.4374-31.3478 370.4375-69.9688 0-25.9343-75.0132-48.5403-186.0937-60.625 2.4557,6.4132 4.3764,13.0365 6,19.7812 60.0469,9.9869 98.1562,24.5567 98.1562,40.8438 .0001,30.0758-129.2643,54.4688-288.5,54.4688-159.2357-0-288.4688-24.3929-288.4688-54.4688-0-17.2005 42.3678-32.5123 108.3438-42.5 1.6764-6.5767 3.633-13.0349 6.0625-19.25z"/>
</g>
</svg>
